<svg xmlns="http://www.w3.org/2000/svg" fill="none" viewBox="0 0 32 32">
  <path fill="#EC407A" d="M16 30a14 14 0 1 1 9.5-24.3l-3.3 3.5a9.2 9.2 0 1 0 0 13.6l3.3 3.5A14 14 0 0 1 16 30Z"/>
  <path fill="#EC407A" d="M16 19a3 3 0 1 1-.1-6 3 3 0 0 1 0 6Zm12.6 0a1.1 1.1 0 1 1 0-2.2 1.1 1.1 0 0 1 0 2.3Zm-3.4 0a1.1 1.1 0 1 1 0-2.4 1.1 1.1 0 0 1 0 2.3Zm3.4-3.8a1.1 1.1 0 1 1-.1-2.3 1.1 1.1 0 0 1 0 2.3Zm-3.4.1a1.1 1.1 0 1 1 0-2.2 1.1 1.1 0 0 1 0 2.3Zm2.1-3.9a1.1 1.1 0 1 1 0-2.3 1.1 1.1 0 1 1 0 2.3Zm0 11.6a1.2 1.2 0 1 1 0-2.3 1.2 1.2 0 0 1 0 2.3Z"/>
</svg>
