<svg xmlns="http://www.w3.org/2000/svg" fill="none" viewBox="0 0 32 32">
  <path fill="#FF1744" d="m13.8 7.5-1.2-1a2 2 0 0 0-1.3-.5H4a2 2 0 0 0-2 2v16a2 2 0 0 0 2 2h24a2 2 0 0 0 2-2V10a2 2 0 0 0-2-2H15.1a2 2 0 0 1-1.3-.5Z"/>
  <path fill="#FFCDD2" fill-rule="evenodd" d="M21.3 10.7a10 10 0 0 1 9.9 10 10 10 0 0 1-10 10 10 10 0 0 1-9.8-10 10 10 0 0 1 9.9-10Zm3.4 4.6c-.3 0-.5.2-.5.5v3.8h-5.9v-3.8c0-.3-.1-.5-.5-.5h-1.5c-.3 0-.5.2-.5.5v9.9c0 .3.2.4.5.4h1.5c.4 0 .5-.1.5-.4v-4h6v4c0 .3 0 .4.4.4h1.5c.4 0 .5-.1.5-.4v-10c0-.2-.2-.4-.5-.4h-1.5Z" clip-rule="evenodd"/>
</svg>
