<svg xmlns="http://www.w3.org/2000/svg" width="32" height="32" fill="none"><path fill="#FFCA28" d="m13.844 7.536-1.288-1.072A2 2 0 0 0 11.276 6H4a2 2 0 0 0-2 2v16a2 2 0 0 0 2 2h24a2 2 0 0 0 2-2V10a2 2 0 0 0-2-2H15.124a2 2 0 0 1-1.28-.464Z"/><path fill="#FFFDE7" d="m11 10 10.462 21L32 10H11Zm8.833 8.339h-1.668v-1.717h1.668v1.717Zm0-2.577h-1.668V14.04h1.668v1.72Zm2.503 5.154h-1.668v-1.72h1.668v1.72Zm0-2.577h-1.668v-1.717h1.668v1.717Zm0-2.577h-1.668V14.04h1.668v1.72Zm2.483 2.577h-1.668v-1.717h1.668v1.717Zm-1.664-2.577V14.04h1.668v1.72h-1.668Z"/></svg>
