<svg xmlns="http://www.w3.org/2000/svg" fill="none" viewBox="0 0 32 32"><path fill="#D32F2F" d="M28.967 12H9.442a2 2 0 0 0-1.898 1.368L4 24V10h24a2 2 0 0 0-2-2H15.124a2 2 0 0 1-1.28-.464l-1.288-1.072A2 2 0 0 0 11.276 6H4a2 2 0 0 0-2 2v16a2 2 0 0 0 2 2h22l4.805-11.212A2 2 0 0 0 28.967 12Z"/><path fill="#EF9A9A" d="M18.887 11.95c-1.787.638-8.137 3.138-8.45 3.35-.312.2-.324.25-.287 1.35l.037 1.15.413.238c.225.125 1.988.9 3.938 1.712 1.937.813 3.812 1.6 4.15 1.75 1.05.462 1.537.387 3.575-.538.987-.45 2.762-1.212 3.924-1.712 3.8-1.613 3.688-1.525 3.688-2.938 0-.825-.038-1.062-.212-1.212-.125-.1-2.113-.925-4.438-1.838-4.713-1.837-4.788-1.85-6.338-1.312Zm1.9 1.05c.276-.075.563-.175.663-.213.15-.05.137.013-.012.375l-.188.45.663.213c.712.238.712.25-.326.363-.662.074-.75.112-.862.45-.163.475-.275.462-.588-.075-.2-.35-.337-.438-.662-.45-.225 0-.638-.038-.913-.1l-.5-.088.663-.225c.712-.237.737-.287.462-.65-.3-.388-.225-.413.463-.15.563.213.738.225 1.138.1Zm5.113 1.838c.675.262 1.225.5 1.225.55 0 .075-2.563 1.112-2.775 1.112-.2 0-2.6-.925-2.6-1 0-.063 2.613-1.1 2.813-1.113.062-.012.662.2 1.337.45Zm-8.025.112c.9.525.413 1.2-1.025 1.425-1.513.238-3.1-.175-3.2-.838-.088-.587.887-.925 2.537-.875.988.025 1.338.088 1.688.288Zm3.788 1.7c-.05.088-.338.525-.65.975-.3.45-.576.825-.588.85-.025.05-2.825-1.1-2.963-1.225-.05-.038.826-.225 1.938-.4 2.525-.4 2.388-.388 2.263-.2Z"/><path fill="#EF9A9A" d="M29.637 18.925c-.25.3-.637.488-3.837 1.863-1.525.662-3.338 1.45-4.038 1.774-.875.4-1.437.588-1.8.588-.4 0-1.587-.45-4.762-1.775-4.6-1.913-4.587-1.913-4.875-2.2-.188-.175-.2-.1-.2.863V21.1l.412.25c.213.137 2.288 1.05 4.613 2.012 3.325 1.4 4.325 1.763 4.775 1.763.438 0 1.012-.2 2.475-.863 1.05-.474 3.013-1.325 4.35-1.9 1.337-.574 2.587-1.187 2.788-1.362.337-.3.35-.35.312-1.3-.038-.875-.063-.962-.213-.775Z"/><path fill="#EF9A9A" d="M29.65 22.163c-.212.25-1.275.762-4.475 2.125-1.387.6-2.988 1.312-3.563 1.587-1.437.7-1.812.675-3.824-.175-.888-.363-2.85-1.2-4.388-1.837-1.525-.638-2.888-1.263-3.025-1.388-.25-.238-.25-.225-.25.762 0 .826.037 1.038.238 1.226.137.124 1.3.674 2.6 1.212 1.287.55 3.262 1.375 4.374 1.85 1.4.588 2.188.85 2.55.85.363 0 1.2-.3 3.026-1.113 1.387-.612 3.362-1.462 4.375-1.9 1.024-.437 2.024-.937 2.224-1.112.363-.3.375-.337.338-1.3-.038-.85-.063-.962-.2-.787Z"/></svg>
