<svg xmlns="http://www.w3.org/2000/svg" fill="none" viewBox="0 0 32 32">
  <path fill="#0288D1" d="m13.8 7.5-1.2-1a2 2 0 0 0-1.3-.5H4a2 2 0 0 0-2 2v16a2 2 0 0 0 2 2h24a2 2 0 0 0 2-2V10a2 2 0 0 0-2-2H15.1a2 2 0 0 1-1.3-.5Z"/>
  <path fill="#263238" d="m13.8 7.5-1.2-1a2 2 0 0 0-1.3-.5H4a2 2 0 0 0-2 2v16a2 2 0 0 0 2 2h24a2 2 0 0 0 2-2V10a2 2 0 0 0-2-2H15.1a2 2 0 0 1-1.3-.5Z"/>
  <path fill="#EEE" d="M25.5 12.3c-.2.3.2 1.5.7 1.9l.9.5v.3c-.6.8-2 1-3.6.4l-3-1.4c-1.7-.8-1.8-.8-4-.8h-1.9l-.4.2a2 2 0 0 0-.7.6l-.3.4v1.4c0 1.4 0 1.4.3 1.8 0 .2.3.4.5.5l2.6 1.3 1.1.5 2 .5c2.1.3 4.1 0 6.2-1 2-1.2 3.2-1.9 3.3-2.1 0-.2 0-.5-.2-.6l-2 1-2.3 1.2c-2.5 1.2-5 1-8-.3l-1.5-.8c-.7-.3-1.1-.6-1.1-.8h2.6l1 .4a8 8 0 0 0 2.8.9c2.9.3 6.4-1.2 7.3-3.1.2-.4.2-.4.6-.4.4 0 1-.2 1.3-.6.3-.2.3-.2.3-.8V13l-.3.2-.6.1c-.4 0-1 .3-1.1.5-.1.2-.3.2-.3 0s-.4-.6-1-.8l-.7-.5c-.3-.4-.4-.4-.5-.1Zm-6.6 2c.3 0 .9.3 1.4.5a19.6 19.6 0 0 0 4.5 1.8l-1 .5c-.8.2-1.6.4-2.5.4-1 0-1.7-.2-2.6-.5l-1.2-.5c-.5-.3-.6-.3-2-.3l-1.4-.1v-1.5c.2-.6.4-.6 2.5-.5 1.6 0 2 0 2.3.2Z"/>
  <path fill="#EEE" d="m16.3 15 .1.5c.2.2.4.2.5 0 .2-.2.2-.2.1-.4 0-.3-.5-.4-.7-.1Zm-3 3.6c-.3.3 0 2.4.8 3.8.4.7 1.1 1.8 1.6 2.2a8 8 0 0 0 4.8 2.1 8 8 0 0 0 8.6-7c.1-.9 0-1.2-.2-1.2-.3 0-1 .3-2.4 1.2a10 10 0 0 1-3.3 1.8c-.7.3-.9.3-2 .3-1.2 0-1.4 0-2.1-.3-1.3-.3-2.4-1-4.6-2.5-.7-.6-1-.6-1.2-.4Zm15 1.4c0 .3-.1.4-.3.5l-1 .7a24.7 24.7 0 0 1-2.3 1.8 9 9 0 0 1-2.3.7c-.8.2-2.5.1-3.2 0-1-.4-2-1-4-2.5-1-.7-1.1-.9-1.1-1.3 0-.2 0-.1.4.1l2.4 1.6a9 9 0 0 0 6.2.8c1.2-.3 2.1-.7 3.8-1.8l1.4-1v.4Zm-.8 2.3-1.3 1.6c-.7.6-1.8 1.3-2.6 1.6a7.2 7.2 0 0 1-8.8-3.5l.4.3c1.1.9 2.4 1.7 3.4 2 .6.2 1.8.4 2.6.4l2.5-.4c.8-.2 1.7-.7 2.8-1.6l1.1-.8-.1.4Z"/>
</svg>
