<svg xmlns="http://www.w3.org/2000/svg" fill="none" viewBox="0 0 32 32">
  <path fill="#0288D1" d="m13.8 7.5-1.2-1a2 2 0 0 0-1.3-.5H4a2 2 0 0 0-2 2v16a2 2 0 0 0 2 2h24a2 2 0 0 0 2-2V10a2 2 0 0 0-2-2H15.1a2 2 0 0 1-1.3-.5Z"/>
  <path fill="#BBDEFB" fill-rule="evenodd" d="m22 10 3.5 2v1.2l4.3 2.5v4.2l1.2.7v4l-3.6 2.1-1.6-1L22 28l-4-2.2-1.5.9-3.6-2v-4.1l1.1-.7v-4.2l4.3-2.5V12l3.5-2Zm3.5 4.2v2l-3.6 2-3.5-2v-2l-3.4 2v3.2l1.6-.9 3.6 2v4.2l-1.1.6 2.9 1.6 3-1.6-1.2-.6v-4.1l3.6-2 1.5.8v-3.2l-3.4-2Zm-.7 10v-2.6L27 23v2.5L24.8 24Zm5.3-2.6L27.9 23v2.5L30 24v-2.5Zm-16.2 2.5v-2.5l2.2 1.3v2.5L14 24Zm5.3-2.5L17 23v2.5l2.2-1.3v-2.5Zm6-.8 2.2-1.2 2.2 1.2-2.2 1.3-2.2-1.3Zm-8.6-1.2-2.2 1.2 2.2 1.3 2.2-1.3-2.2-1.2Zm2.7-4v-2.5l2.2 1.3v2.5l-2.2-1.3Zm5.3-2.5-2.2 1.3v2.5l2.2-1.3v-2.5Zm-4.8-.8 2.1-1.2 2.2 1.2-2.2 1.3-2.1-1.3Z" clip-rule="evenodd"/>
</svg>
