<svg xmlns="http://www.w3.org/2000/svg" fill="none" viewBox="0 0 32 32">
  <path fill="#212121" d="M29 12H9.4a2 2 0 0 0-1.9 1.4L4 24V10h24a2 2 0 0 0-2-2H15.1a2 2 0 0 1-1.3-.5l-1.2-1a2 2 0 0 0-1.3-.5H4a2 2 0 0 0-2 2v16a2 2 0 0 0 2 2h22l4.8-11.2A2 2 0 0 0 29 12Z"/>
  <path fill="#797878" d="M15.6 14a2 2 0 0 0-1.4 1.1 2 2 0 0 0 .4 2.3c.8.8 2 .8 2.8 0 .8-.8.8-2 0-2.8a2 2 0 0 0-1.8-.6Zm6 0a2 2 0 0 0-1.4 1.1 2 2 0 0 0 .4 2.3c.8.8 2 .8 2.8 0 .8-.8.8-2 0-2.8a2 2 0 0 0-1.8-.6Zm6 0a2 2 0 0 0-1.6 1.7 2 2 0 0 0 1.7 2.3 2 2 0 0 0 2.3-2.3 2 2 0 0 0-.6-1.1 2 2 0 0 0-1.8-.6Zm-12 12a2 2 0 0 0-1.4 1.1 2 2 0 0 0 .4 2.3c.8.8 2 .8 2.8 0 .8-.8.8-2 0-2.8a2 2 0 0 0-1.8-.6Zm12 0a2 2 0 0 0-1.6 1.7 2 2 0 0 0 2.3 2.3 2 2 0 0 0 1.7-2.3 2 2 0 0 0-.6-1.1 2 2 0 0 0-1.8-.6Z"/>
  <path fill="#fff" d="M15.7 20a2 2 0 1 0 1 3.8 2 2 0 0 0 .6-3.3 2 2 0 0 0-1-.4h-.6Zm6 0a2 2 0 1 0 1 3.8 2 2 0 0 0 .6-3.3 2 2 0 0 0-1-.4h-.6Zm6 0a2 2 0 1 0 1 3.8 2 2 0 0 0 .6-3.3 2 2 0 0 0-1-.4h-.6Zm-6 6a2 2 0 1 0 1 3.8 2 2 0 0 0 .6-3.3 2 2 0 0 0-1-.4h-.6Z"/>
</svg>
