<svg xmlns="http://www.w3.org/2000/svg" width="32" height="32" fill="none"><g clip-path="url(#a)"><path fill="#3949AB" d="m13.844 7.536-1.288-1.072A2 2 0 0 0 11.276 6H4a2 2 0 0 0-2 2v16a2 2 0 0 0 2 2h24a2 2 0 0 0 2-2V10a2 2 0 0 0-2-2H15.124a2 2 0 0 1-1.28-.464Z"/><path fill="#7986CB" d="M26.615 12.75h-9.23a.344.344 0 0 0-.297.17l-4.612 7.907a.343.343 0 0 0 0 .346l4.612 7.907a.344.344 0 0 0 .297.17h9.23a.344.344 0 0 0 .297-.17l4.612-7.907a.344.344 0 0 0 0-.346l-4.612-7.907a.344.344 0 0 0-.297-.17Zm-4.769 14.36-5.156-2.578a.343.343 0 0 1-.19-.307v-6.45a.344.344 0 0 1 .19-.307l5.156-2.579a.343.343 0 0 1 .308 0l5.156 2.579a.344.344 0 0 1 .19.307v6.45a.343.343 0 0 1-.19.307l-5.156 2.578a.343.343 0 0 1-.308 0Z"/><path fill="#C5CAE9" d="M26.125 23.366v-4.732a.344.344 0 0 0-.19-.307l-3.781-1.89a.343.343 0 0 0-.308 0l-3.781 1.89a.344.344 0 0 0-.19.307v4.732a.344.344 0 0 0 .19.307l3.781 1.89a.343.343 0 0 0 .308 0l3.781-1.89a.344.344 0 0 0 .19-.307Z"/></g><defs><clipPath id="a"><path fill="#fff" d="M0 0h32v32H0z"/></clipPath></defs></svg>
