<svg xmlns="http://www.w3.org/2000/svg" width="32" height="32" fill="none"><g clip-path="url(#a)"><path fill="#00ACC1" d="m13.844 7.536-1.288-1.072A2 2 0 0 0 11.276 6H4a2 2 0 0 0-2 2v16a2 2 0 0 0 2 2h24a2 2 0 0 0 2-2V10a2 2 0 0 0-2-2H15.124a2 2 0 0 1-1.28-.464Z"/><g fill="#B2EBF2" clip-path="url(#b)"><path d="M3.875 17.25h3.75v1.875h-3.75V17.25ZM2 21h5.625v1.875H2V21Zm3.75 3.75h1.875v1.875H5.75V24.75Zm15.894-4.688h-6.519v2.813h3.037a4.145 4.145 0 0 1-3.31 1.875 2.483 2.483 0 0 1-1.925-.804 2.681 2.681 0 0 1-.59-2.138 4.233 4.233 0 0 1 4-3.62 2.56 2.56 0 0 1 1.639.547l2.777-1.11a5.249 5.249 0 0 0-4.417-2.25 7.056 7.056 0 0 0-6.79 6.094 5.263 5.263 0 0 0 5.305 6.093 7.056 7.056 0 0 0 6.79-6.093c.057-.467.058-.94.003-1.407Z"/><path d="M26.649 15.375a7.056 7.056 0 0 0-6.79 6.094 5.263 5.263 0 0 0 5.305 6.093 7.056 7.056 0 0 0 6.79-6.093 5.264 5.264 0 0 0-5.305-6.094Zm2.513 5.753a4.233 4.233 0 0 1-3.998 3.622 2.483 2.483 0 0 1-1.925-.804 2.68 2.68 0 0 1-.589-2.138 4.233 4.233 0 0 1 3.999-3.62 2.484 2.484 0 0 1 1.924.804 2.681 2.681 0 0 1 .59 2.137Z"/></g></g><defs><clipPath id="a"><path fill="#fff" d="M0 0h32v32H0z"/></clipPath><clipPath id="b"><path fill="#fff" d="M2 6h30v30H2z"/></clipPath></defs></svg>