<svg xmlns="http://www.w3.org/2000/svg" fill="none" viewBox="0 0 32 32">
  <path fill="#1565C0" d="m13.8 7.5-1.2-1a2 2 0 0 0-1.3-.5H4a2 2 0 0 0-2 2v16a2 2 0 0 0 2 2h24a2 2 0 0 0 2-2V10a2 2 0 0 0-2-2H15.1a2 2 0 0 1-1.3-.5Z"/>
  <path fill="#B3E5FC" d="M22.5 11c-3.8 0-4.8 3-5.2 4.7.5-.2 1.6-.4 2.1-.4 1.2 0 1.6.3 1.8 1.4.2.8.3 2 .3 2.7a8 8 0 0 1-.6 3v.3l-.3.5-.1.4.5.2h.1c.5.3.4 1 .4 1.4v3.6c0 .7.2 1.2.4 1.6.2.6.7 1.5 1.7 1.5.8 0 2-.4 2-2v-4.2c.1-1.4 1.7-2 2.1-2.3 0 0-.2-.7-.5-1.1l-.2-.5c-.6-1.1-2-4-1-5.4.3-.7.7-1 1.8-1.1-.5-1.3-1.6-4.2-5.3-4.2Zm-6.8 0c-2 .2-4.6 1.4-4.6 5.3 0 2.7 1.8 10.4 4.7 10.4l.4-.1a1 1 0 0 1-.5-.9c0-.7.5-1.3 1.7-1.6 0 0 .3 0 1-.4a3 3 0 0 1-1-.7 4 4 0 0 1-1.1-3.2v-4.2a7 7 0 0 1 2-4 8 8 0 0 0-2.6-.5Zm11 0-.6.1c1 .8 2 2 2.6 3.8v1.4l.1.2v2.7c.1.7 0 1.3-.1 2l-.3 1 .2.6.4.6c1.8-1.7 3-5 3-8.5 0-.7-.3-1.2-.5-1.5a6 6 0 0 0-4.9-2.3Zm-7.3 5.3a6 6 0 0 0-1.7.4l-.3.2V20c-.2.7.1 1.6.7 2.3.4.3 1 .6 1.5.7v-.2l.2-.5.1-.2a7 7 0 0 0 .6-2.7c0-.4 0-1.2-.2-1.9-.2.2-.4.4-.7.3-.4 0-.7-.6-.7-.8 0-.2.4-.3.8-.2l.4.1.1.1c0-.5-.2-.6-.2-.6l-.6-.1Zm8.3 0c-.5 0-.6.2-.8.5.4 0 .6.1.6.3 0 .2 0 .4-.2.5a1 1 0 0 1-.5.2c0 .9.4 2 .9 3 .1-.4.2-.9.1-1.4l-.1-1.2.1-1.1v-.8Zm2.3 7.8h-.3l-1.4.2-.4.2c-.6.4-1.1.7-1.2 1.2v.6c.7 0 1.6-.4 2.2-.7 1-.4 1.7-1.4 1.1-1.5Zm-10.8.3c-.5.3-1.2.7-1.6.7-1.5.5-.6 1 0 1 .5.1 2 .4 2.9-.3v-1.1l-.3-.1-1-.2Z"/>
</svg>
