<svg xmlns="http://www.w3.org/2000/svg" fill="none" viewBox="0 0 32 32">
  <g clip-path="url(#a)">
    <path fill="#F57C00" d="m13.8 7.5-1.2-1a2 2 0 0 0-1.3-.5H4a2 2 0 0 0-2 2v16a2 2 0 0 0 2 2h24a2 2 0 0 0 2-2V10a2 2 0 0 0-2-2H15.1a2 2 0 0 1-1.3-.5Z"/>
    <mask id="b" width="22" height="22" x="11" y="8" fill="#000" maskUnits="userSpaceOnUse">
      <path fill="#fff" d="M11 8h22v22H11z"/>
      <path fill-rule="evenodd" d="M17.4 23.6h8.9v-8.9h-9v9Zm9.6-8.9h1.4v.7H27V17h1.4v.7H27v1h1.4v.8H27v1.4h1.4v.7H27V23h1.4v.7H27c0 .5-.3.8-.7.8v1.4h-.7v-1.4H24v1.4h-.7v-1.4h-1v1.4h-.8v-1.4h-1.4v1.4h-.7v-1.4H18v1.4h-.7v-1.4a.7.7 0 0 1-.8-.7h-1V23h1v-1.4h-1v-.7h1v-1.4h-1v-.8h1v-1h-1V17h1v-1.5h-1v-.7h1c0-.4.3-.7.7-.7v-1.4h.8V14h1.4v-1.4h.7V14h1.4v-1.4h.8V14h1v-1.4h.7V14h1.5v-1.4h.7V14c.4 0 .7.3.7.7Zm-4.6 13.5h-9.6v-9.5h2v-.8h-2c-.5 0-.8.4-.8.8v9.5c0 .5.3.8.8.8h9.5c.4 0 .8-.3.8-.8v-1.7h-.7v1.7ZM32 9.8v9.5c0 .4-.3.8-.8.8h-2v-.7h2V9.7h-9.5v2h-.8v-2c0-.5.4-.8.8-.8h9.5c.5 0 .8.3.8.8Z" clip-rule="evenodd"/>
    </mask>
    <path fill="#FFE0B2" fill-rule="evenodd" d="M17.4 23.6h8.9v-8.9h-9v9Zm9.6-8.9h1.4v.7H27V17h1.4v.7H27v1h1.4v.8H27v1.4h1.4v.7H27V23h1.4v.7H27c0 .5-.3.8-.7.8v1.4h-.7v-1.4H24v1.4h-.7v-1.4h-1v1.4h-.8v-1.4h-1.4v1.4h-.7v-1.4H18v1.4h-.7v-1.4a.7.7 0 0 1-.8-.7h-1V23h1v-1.4h-1v-.7h1v-1.4h-1v-.8h1v-1h-1V17h1v-1.5h-1v-.7h1c0-.4.3-.7.7-.7v-1.4h.8V14h1.4v-1.4h.7V14h1.4v-1.4h.8V14h1v-1.4h.7V14h1.5v-1.4h.7V14c.4 0 .7.3.7.7Zm-4.6 13.5h-9.6v-9.5h2v-.8h-2c-.5 0-.8.4-.8.8v9.5c0 .5.3.8.8.8h9.5c.4 0 .8-.3.8-.8v-1.7h-.7v1.7ZM32 9.8v9.5c0 .4-.3.8-.8.8h-2v-.7h2V9.7h-9.5v2h-.8v-2c0-.5.4-.8.8-.8h9.5c.5 0 .8.3.8.8Z" clip-rule="evenodd"/>
    <path stroke="#FFE0B2" stroke-width=".4" d="M17.4 23.6h8.9v-8.9h-9v9Zm9.6-8.9h1.4v.7H27V17h1.4v.7H27v1h1.4v.8H27v1.4h1.4v.7H27V23h1.4v.7H27c0 .5-.3.8-.7.8v1.4h-.7v-1.4H24v1.4h-.7v-1.4h-1v1.4h-.8v-1.4h-1.4v1.4h-.7v-1.4H18v1.4h-.7v-1.4a.7.7 0 0 1-.8-.7h-1V23h1v-1.4h-1v-.7h1v-1.4h-1v-.8h1v-1h-1V17h1v-1.5h-1v-.7h1c0-.4.3-.7.7-.7v-1.4h.8V14h1.4v-1.4h.7V14h1.4v-1.4h.8V14h1v-1.4h.7V14h1.5v-1.4h.7V14c.4 0 .7.3.7.7Zm-4.6 13.5h-9.6v-9.5h2v-.8h-2c-.5 0-.8.4-.8.8v9.5c0 .5.3.8.8.8h9.5c.4 0 .8-.3.8-.8v-1.7h-.7v1.7ZM32 9.8v9.5c0 .4-.3.8-.8.8h-2v-.7h2V9.7h-9.5v2h-.8v-2c0-.5.4-.8.8-.8h9.5c.5 0 .8.3.8.8Z" clip-rule="evenodd" mask="url(#b)"/>
  </g>
  <defs>
    <clipPath id="a">
      <path fill="#fff" d="M0 0h32v32H0z"/>
    </clipPath>
  </defs>
</svg>
