<svg xmlns="http://www.w3.org/2000/svg" width="32" height="32" fill="none"><path fill="#43A047" d="M28.967 12H9.442a2 2 0 0 0-1.898 1.368L4 24V10h24a2 2 0 0 0-2-2H15.124a2 2 0 0 1-1.28-.464l-1.288-1.072A2 2 0 0 0 11.276 6H4a2 2 0 0 0-2 2v16a2 2 0 0 0 2 2h22l4.805-11.212A2 2 0 0 0 28.967 12Z"/><path fill="#C8E6C9" d="m21.5 10-9.188 5.25v10.5L21.5 31l9.188-5.25v-10.5L21.5 10Zm5.25 15.094a.656.656 0 0 1-.656.656H24.44a.657.657 0 0 1-.512-.246l-5.053-6.317v5.907a.656.656 0 0 1-.656.656h-1.313a.656.656 0 0 1-.656-.656v-9.188a.656.656 0 0 1 .656-.656h1.654a.657.657 0 0 1 .512.246l5.053 6.316v-5.906a.656.656 0 0 1 .656-.656h1.313a.656.656 0 0 1 .656.656v9.188Z"/></svg>
