<svg xmlns="http://www.w3.org/2000/svg" width="32" height="32" fill="none"><g clip-path="url(#a)"><mask id="b" width="32" height="32" x="0" y="0" maskUnits="userSpaceOnUse" style="mask-type:luminance"><path fill="#fff" d="M0 16c0-5.373 0-8.06.983-10.138A10.24 10.24 0 0 1 5.862.983C7.94 0 10.627 0 16 0s8.06 0 10.138.983a10.24 10.24 0 0 1 4.879 4.879C32 7.94 32 10.627 32 16s0 8.06-.983 10.138a10.238 10.238 0 0 1-4.879 4.879C24.06 32 21.373 32 16 32s-8.06 0-10.138-.983a10.24 10.24 0 0 1-4.879-4.879C0 24.06 0 21.373 0 16Z"/></mask><g fill="#fff" mask="url(#b)"><path fill-rule="evenodd" d="M16 32c8.837 0 16-7.163 16-16S24.837 0 16 0 0 7.163 0 16s7.163 16 16 16ZM8.107 13.87a2.401 2.401 0 1 1 3.225-2.614c.133-.095.274-.181.423-.259.597-.327 1.273-.49 2.026-.49a3.9 3.9 0 0 1 1.942.49c.488.262.892.62 1.211 1.072.345-.44.766-.79 1.263-1.05a4.294 4.294 0 0 1 2.091-.512c.768 0 1.458.163 2.07.49a3.529 3.529 0 0 1 1.45 1.366c.356.597.533 1.308.533 2.133v3.933a2.4 2.4 0 1 1-2.795-.015v-3.47c0-.598-.191-1.06-.575-1.387-.37-.341-.832-.512-1.387-.512-.355 0-.69.079-1.003.235a1.613 1.613 0 0 0-.704.64c-.17.284-.256.626-.256 1.024v3.485a2.4 2.4 0 1 1-2.795-.015v-3.47c0-.598-.191-1.06-.575-1.387-.37-.341-.832-.512-1.387-.512-.37 0-.704.079-1.003.235a1.612 1.612 0 0 0-.704.64c-.17.284-.256.626-.256 1.024v3.485a2.4 2.4 0 1 1-2.795-.015V13.87Z" clip-rule="evenodd"/><path d="M9.013 12.96a1.333 1.333 0 1 0 0-2.667 1.333 1.333 0 0 0 0 2.667ZM9.547 21.706a1.333 1.333 0 1 0 0-2.666 1.333 1.333 0 0 0 0 2.666ZM22.987 21.706a1.333 1.333 0 1 0 0-2.666 1.333 1.333 0 0 0 0 2.666ZM17.6 20.373a1.333 1.333 0 1 1-2.667 0 1.333 1.333 0 0 1 2.667 0Z"/></g></g><defs><clipPath id="a"><path fill="#fff" d="M0 0h32v32H0z"/></clipPath></defs></svg>