<svg xmlns="http://www.w3.org/2000/svg" fill="none" viewBox="0 0 32 32">
  <g clip-path="url(#a)">
    <path fill="#1F1E1E" d="m8.2 0-3 .5A8 8 0 0 0 .5 5.2C.3 6 .1 6.9 0 8.3v15.4a7.8 7.8 0 0 0 5.2 7.8c.8.2 1.7.4 3.1.5h15.4c1.8-.1 2.9-.4 3.8-.8a7.8 7.8 0 0 0 4-4.4c.2-.8.4-1.7.5-3.1V8.3a9.7 9.7 0 0 0-.8-3.8 7.8 7.8 0 0 0-4.4-4C26 .3 25.1.1 23.7 0H8.2ZM11 8.2c.5.2.9.7 1 1.3v1.2c-.2.6-.8 1-1.3 1.2H9.3c-.6-.2-1-.8-1.2-1.3V9c.3-.3.6-.7.9-.8.4-.3.6-.3 1-.3.5 0 .6 0 .8.2Zm6 0c.5.2.9.7 1 1.3v1.2c-.2.6-.8 1-1.3 1.2h-1.3c-.6-.2-1-.8-1.2-1.3V9c.3-.3.6-.7.9-.8.4-.3.6-.3 1-.3.5 0 .6 0 .9.2Zm6 0c.5.2.9.7 1 1.3v1.2c-.2.6-.8 1-1.3 1.2h-1.3c-.6-.2-1-.8-1.2-1.3V9c.3-.3.6-.7.9-.8.4-.3.6-.3 1-.3.5 0 .6 0 .9.2Zm-12 6c.5.2.8.6 1 1.2v1.4a2 2 0 0 1-1.3 1.1H9.2A2 2 0 0 1 8 16.5v-1.4A2 2 0 0 1 9.5 14h1.4Zm6 0c.5.2.8.6 1 1.2v1.4a2 2 0 0 1-1.3 1.1h-1.4a2 2 0 0 1-1.1-1.3v-1.4a2 2 0 0 1 1.3-1.1h1.4Zm6 0c.5.2.8.6 1 1.2v1.4a2 2 0 0 1-1.3 1.1h-1.4a2 2 0 0 1-1.1-1.3v-1.4a2 2 0 0 1 1.3-1.1h1.4Zm-12 6c.5.2.9.7 1 1.3v1.2c-.2.6-.8 1-1.3 1.2H9.3c-.6-.2-1-.8-1.2-1.3V21l.9-.9c.4-.2.6-.2 1-.2.5 0 .6 0 .8.2Zm6 0c.5.2.8.6 1 1.2v1.4a2 2 0 0 1-1.3 1.1h-1.4a2 2 0 0 1-1.1-1.3v-1.4a2 2 0 0 1 1.3-1.1h1.4Zm6 0c.5.2.9.7 1 1.3v1.2c-.2.6-.8 1-1.3 1.2h-1.3c-.6-.2-1-.8-1.2-1.3V21l.9-.9c.4-.2.6-.2 1-.2.5 0 .6 0 .9.2Z"/>
    <path fill="#797878" d="M9.6 8c-.6.2-1.2.6-1.4 1.1a2 2 0 0 0 .4 2.3c.8.8 2 .8 2.8 0 .8-.8.8-2 0-2.8A2 2 0 0 0 9.6 8Zm6 0c-.6.2-1.2.6-1.4 1.1a2 2 0 0 0 .4 2.3c.8.8 2 .8 2.8 0 .8-.8.8-2 0-2.8a2 2 0 0 0-1.8-.6Zm6 0A2 2 0 0 0 20 9.7a2 2 0 0 0 1.7 2.3A2 2 0 0 0 24 9.7a2 2 0 0 0-.6-1.1 2 2 0 0 0-1.8-.6Zm-12 12c-.6.2-1.2.6-1.4 1.1a2 2 0 0 0 .4 2.3c.8.8 2 .8 2.8 0 .8-.8.8-2 0-2.8a2 2 0 0 0-1.8-.6Zm12 0a2 2 0 0 0-1.6 1.7 2 2 0 0 0 2.3 2.3 2 2 0 0 0 1.7-2.3 2 2 0 0 0-.6-1.1 2 2 0 0 0-1.8-.6Z"/>
    <path fill="#fff" d="M9.7 14a2 2 0 1 0 1 3.8 2 2 0 0 0 .6-3.3 2 2 0 0 0-.9-.4h-.7Zm6 0a2 2 0 1 0 1 3.8 2 2 0 0 0 .6-3.3 2 2 0 0 0-.9-.4h-.7Zm6 0a2 2 0 1 0 1 3.8 2 2 0 0 0 .6-3.3 2 2 0 0 0-.9-.4h-.7Zm-6 6a2 2 0 1 0 1 3.8 2 2 0 0 0 .6-3.3 2 2 0 0 0-.9-.4h-.7Z"/>
  </g>
  <defs>
    <clipPath id="a">
      <path fill="#fff" d="M0 0h32v32H0z"/>
    </clipPath>
  </defs>
</svg>
